<?xml version="1.0" encoding="UTF-8" standalone="no"?>
<!DOCTYPE svg PUBLIC "-//W3C//DTD SVG 1.1//EN"
 "http://www.w3.org/Graphics/SVG/1.1/DTD/svg11.dtd">
<!-- Generated by graphviz version 2.38.0 (20140413.2041)
 -->
<!-- Title: cfg Pages: 1 -->
<svg width="352pt" height="152pt"
 viewBox="0.00 0.00 352.00 152.00" xmlns="http://www.w3.org/2000/svg" xmlns:xlink="http://www.w3.org/1999/xlink">
	<g id="graph0" class="graph" transform="scale(1 1) rotate(0) translate(4 148)">
		<title>cfg</title>
		<polygon fill="white" stroke="none" points="-4,4 -4,-148 348,-148 348,4 -4,4"/>
		<!-- 0 -->
		<g id="node1" class="node">
			<title>0</title>
			<ellipse fill="none" stroke="black" cx="27" cy="-126" rx="27" ry="18"/>
			<text text-anchor="middle" x="27" y="-122.3" font-family="Times New Roman,serif" font-size="14.00">1</text>
		</g>
		<!-- 1 -->
		<g id="node2" class="node">
			<title>1</title>
			<ellipse fill="none" stroke="black" cx="118" cy="-126" rx="27" ry="18"/>
			<text text-anchor="middle" x="118" y="-122.3" font-family="Times New Roman,serif" font-size="14.00">a</text>
		</g>
		<!-- 0&#45;&gt;1 -->
		<g id="edge1" class="edge">
			<title>0&#45;&gt;1</title>
			<path fill="none" stroke="blue" d="M54.2216,-126C62.5505,-126 71.9135,-126 80.8161,-126"/>
			<polygon fill="blue" stroke="blue" points="80.9659,-129.5 90.9659,-126 80.9658,-122.5 80.9659,-129.5"/>
		</g>
		<!-- 2 -->
		<g id="node3" class="node">
			<title>2</title>
			<ellipse fill="none" stroke="black" cx="226" cy="-126" rx="27" ry="18"/>
			<text text-anchor="middle" x="226" y="-122.3" font-family="Times New Roman,serif" font-size="14.00">a</text>
		</g>
		<!-- 1&#45;&gt;2 -->
		<g id="edge2" class="edge">
			<title>1&#45;&gt;2</title>
			<path fill="none" stroke="blue" stroke-dasharray="5,2" d="M145.202,-126C158.325,-126 174.422,-126 188.713,-126"/>
			<polygon fill="blue" stroke="blue" points="188.732,-129.5 198.732,-126 188.732,-122.5 188.732,-129.5"/>
			<text text-anchor="middle" x="172" y="-129.8" font-family="Times New Roman,serif" font-size="14.00">0,0</text>
		</g>
		<!-- 3 -->
		<g id="node4" class="node">
			<title>3</title>
			<ellipse fill="none" stroke="black" cx="317" cy="-72" rx="27" ry="18"/>
			<text text-anchor="middle" x="317" y="-68.3" font-family="Times New Roman,serif" font-size="14.00">e</text>
		</g>
		<!-- 2&#45;&gt;3 -->
		<g id="edge3" class="edge">
			<title>2&#45;&gt;3</title>
			<path fill="none" stroke="blue" d="M246.752,-114.016C258.735,-106.745 274.23,-97.3438 287.522,-89.2785"/>
			<polygon fill="blue" stroke="blue" points="289.569,-92.1305 296.303,-83.9508 285.938,-86.1459 289.569,-92.1305"/>
		</g>
		<!-- 4 -->
		<g id="node5" class="node">
			<title>4</title>
			<ellipse fill="none" stroke="black" cx="27" cy="-72" rx="27" ry="18"/>
			<text text-anchor="middle" x="27" y="-68.3" font-family="Times New Roman,serif" font-size="14.00">2</text>
		</g>
		<!-- 5 -->
		<g id="node6" class="node">
			<title>5</title>
			<ellipse fill="none" stroke="black" cx="118" cy="-72" rx="27" ry="18"/>
			<text text-anchor="middle" x="118" y="-68.3" font-family="Times New Roman,serif" font-size="14.00">b</text>
		</g>
		<!-- 4&#45;&gt;5 -->
		<g id="edge4" class="edge">
			<title>4&#45;&gt;5</title>
			<path fill="none" stroke="blue" d="M54.2216,-72C62.5505,-72 71.9135,-72 80.8161,-72"/>
			<polygon fill="blue" stroke="blue" points="80.9659,-75.5001 90.9659,-72 80.9658,-68.5001 80.9659,-75.5001"/>
		</g>
		<!-- 6 -->
		<g id="node7" class="node">
			<title>6</title>
			<ellipse fill="none" stroke="black" cx="226" cy="-72" rx="27" ry="18"/>
			<text text-anchor="middle" x="226" y="-68.3" font-family="Times New Roman,serif" font-size="14.00">b</text>
		</g>
		<!-- 5&#45;&gt;6 -->
		<g id="edge5" class="edge">
			<title>5&#45;&gt;6</title>
			<path fill="none" stroke="blue" stroke-dasharray="5,2" d="M145.202,-72C158.325,-72 174.422,-72 188.713,-72"/>
			<polygon fill="blue" stroke="blue" points="188.732,-75.5001 198.732,-72 188.732,-68.5001 188.732,-75.5001"/>
			<text text-anchor="middle" x="172" y="-75.8" font-family="Times New Roman,serif" font-size="14.00">0,0</text>
		</g>
		<!-- 6&#45;&gt;3 -->
		<g id="edge6" class="edge">
			<title>6&#45;&gt;3</title>
			<path fill="none" stroke="blue" d="M253.222,-72C261.551,-72 270.914,-72 279.816,-72"/>
			<polygon fill="blue" stroke="blue" points="279.966,-75.5001 289.966,-72 279.966,-68.5001 279.966,-75.5001"/>
		</g>
		<!-- 7 -->
		<g id="node8" class="node">
			<title>7</title>
			<ellipse fill="none" stroke="black" cx="27" cy="-18" rx="27" ry="18"/>
			<text text-anchor="middle" x="27" y="-14.3" font-family="Times New Roman,serif" font-size="14.00">3</text>
		</g>
		<!-- 8 -->
		<g id="node9" class="node">
			<title>8</title>
			<ellipse fill="none" stroke="black" cx="118" cy="-18" rx="27" ry="18"/>
			<text text-anchor="middle" x="118" y="-14.3" font-family="Times New Roman,serif" font-size="14.00">d</text>
		</g>
		<!-- 7&#45;&gt;8 -->
		<g id="edge7" class="edge">
			<title>7&#45;&gt;8</title>
			<path fill="none" stroke="blue" d="M54.2216,-18C62.5505,-18 71.9135,-18 80.8161,-18"/>
			<polygon fill="blue" stroke="blue" points="80.9659,-21.5001 90.9659,-18 80.9658,-14.5001 80.9659,-21.5001"/>
		</g>
		<!-- 9 -->
		<g id="node10" class="node">
			<title>9</title>
			<ellipse fill="none" stroke="black" cx="226" cy="-18" rx="27" ry="18"/>
			<text text-anchor="middle" x="226" y="-14.3" font-family="Times New Roman,serif" font-size="14.00">d</text>
		</g>
		<!-- 8&#45;&gt;9 -->
		<g id="edge8" class="edge">
			<title>8&#45;&gt;9</title>
			<path fill="none" stroke="blue" stroke-dasharray="5,2" d="M145.202,-18C158.325,-18 174.422,-18 188.713,-18"/>
			<polygon fill="blue" stroke="blue" points="188.732,-21.5001 198.732,-18 188.732,-14.5001 188.732,-21.5001"/>
			<text text-anchor="middle" x="172" y="-21.8" font-family="Times New Roman,serif" font-size="14.00">0,0</text>
		</g>
		<!-- 9&#45;&gt;3 -->
		<g id="edge9" class="edge">
			<title>9&#45;&gt;3</title>
			<path fill="none" stroke="blue" d="M246.752,-29.9844C258.735,-37.2552 274.23,-46.6562 287.522,-54.7215"/>
			<polygon fill="blue" stroke="blue" points="285.938,-57.8541 296.303,-60.0492 289.569,-51.8695 285.938,-57.8541"/>
		</g>
	</g>
</svg>
