<?xml version="1.0" encoding="UTF-8" standalone="no"?>
<!DOCTYPE svg PUBLIC "-//W3C//DTD SVG 1.1//EN"
 "http://www.w3.org/Graphics/SVG/1.1/DTD/svg11.dtd">
<!-- Generated by graphviz version 2.38.0 (20140413.2041)
 -->
<!-- Title: cfg Pages: 1 -->
<svg width="486pt" height="729pt"
 viewBox="0.00 0.00 485.79 729.00" xmlns="http://www.w3.org/2000/svg" xmlns:xlink="http://www.w3.org/1999/xlink">
    <g id="graph0" class="graph" transform="scale(1 1) rotate(0) translate(4 725)">
        <title>cfg</title>
        <polygon fill="white" stroke="none" points="-4,4 -4,-725 481.795,-725 481.795,4 -4,4"/>
        <!-- 6 -->
        <g id="node1" class="node">
            <title>6</title>
            <ellipse fill="none" stroke="black" cx="401.795" cy="-557" rx="27" ry="18"/>
            <text text-anchor="middle" x="401.795" y="-553.3" font-family="Times New Roman,serif" font-size="14.00">id</text>
        </g>
        <!-- 18 -->
        <g id="node9" class="node">
            <title>18</title>
            <ellipse fill="none" stroke="black" cx="401.795" cy="-470" rx="27" ry="18"/>
            <text text-anchor="middle" x="401.795" y="-466.3" font-family="Times New Roman,serif" font-size="14.00">id</text>
        </g>
        <!-- 6&#45;&gt;18 -->
        <g id="edge1" class="edge">
            <title>6&#45;&gt;18</title>
            <path fill="none" stroke="blue" stroke-dasharray="5,2" d="M401.795,-538.799C401.795,-527.163 401.795,-511.548 401.795,-498.237"/>
            <polygon fill="blue" stroke="blue" points="405.295,-498.175 401.795,-488.175 398.295,-498.175 405.295,-498.175"/>
            <text text-anchor="middle" x="410.795" y="-509.8" font-family="Times New Roman,serif" font-size="14.00">0,0</text>
        </g>
        <!-- 7 -->
        <g id="node2" class="node">
            <title>7</title>
            <ellipse fill="none" stroke="black" cx="401.795" cy="-630" rx="73.387" ry="18"/>
            <text text-anchor="middle" x="401.795" y="-626.3" font-family="Times New Roman,serif" font-size="14.00">_SESSION[&quot;id&quot;]</text>
        </g>
        <!-- 7&#45;&gt;6 -->
        <g id="edge2" class="edge">
            <title>7&#45;&gt;6</title>
            <path fill="none" stroke="blue" d="M401.795,-611.813C401.795,-603.789 401.795,-594.047 401.795,-585.069"/>
            <polygon fill="blue" stroke="blue" points="405.295,-585.029 401.795,-575.029 398.295,-585.029 405.295,-585.029"/>
        </g>
        <!-- 8 -->
        <g id="node3" class="node">
            <title>8</title>
            <ellipse fill="none" stroke="black" cx="352.795" cy="-703" rx="53.0913" ry="18"/>
            <text text-anchor="middle" x="352.795" y="-699.3" font-family="Times New Roman,serif" font-size="14.00">_SESSION</text>
        </g>
        <!-- 8&#45;&gt;7 -->
        <g id="edge3" class="edge">
            <title>8&#45;&gt;7</title>
            <path fill="none" stroke="blue" d="M364.407,-685.174C370.301,-676.634 377.585,-666.079 384.154,-656.561"/>
            <polygon fill="blue" stroke="blue" points="387.126,-658.417 389.925,-648.198 381.365,-654.441 387.126,-658.417"/>
        </g>
        <!-- 10 -->
        <g id="node4" class="node">
            <title>10</title>
            <ellipse fill="none" stroke="black" cx="450.795" cy="-703" rx="27" ry="18"/>
            <text text-anchor="middle" x="450.795" y="-699.3" font-family="Times New Roman,serif" font-size="14.00">&quot;id&quot;</text>
        </g>
        <!-- 10&#45;&gt;7 -->
        <g id="edge4" class="edge">
            <title>10&#45;&gt;7</title>
            <path fill="none" stroke="blue" d="M439.92,-686.243C433.858,-677.459 426.163,-666.31 419.277,-656.331"/>
            <polygon fill="blue" stroke="blue" points="422.055,-654.195 413.494,-647.953 416.294,-658.171 422.055,-654.195"/>
        </g>
        <!-- 13 -->
        <g id="node5" class="node">
            <title>13</title>
            <ellipse fill="none" stroke="black" cx="168.795" cy="-251" rx="31.3957" ry="18"/>
            <text text-anchor="middle" x="168.795" y="-247.3" font-family="Times New Roman,serif" font-size="14.00">query</text>
        </g>
        <!-- 27 -->
        <g id="node14" class="node">
            <title>27</title>
            <ellipse fill="none" stroke="black" cx="168.795" cy="-164" rx="31.3957" ry="18"/>
            <text text-anchor="middle" x="168.795" y="-160.3" font-family="Times New Roman,serif" font-size="14.00">query</text>
        </g>
        <!-- 13&#45;&gt;27 -->
        <g id="edge5" class="edge">
            <title>13&#45;&gt;27</title>
            <path fill="none" stroke="blue" stroke-dasharray="5,2" d="M168.795,-232.799C168.795,-221.163 168.795,-205.548 168.795,-192.237"/>
            <polygon fill="blue" stroke="blue" points="172.295,-192.175 168.795,-182.175 165.295,-192.175 172.295,-192.175"/>
            <text text-anchor="middle" x="177.795" y="-203.8" font-family="Times New Roman,serif" font-size="14.00">0,0</text>
        </g>
        <!-- 14 -->
        <g id="node6" class="node">
            <title>14</title>
            <ellipse fill="none" stroke="black" cx="168.795" cy="-324" rx="130.777" ry="18"/>
            <text text-anchor="middle" x="168.795" y="-320.3" font-family="Times New Roman,serif" font-size="14.00">&quot;SELECT * FROM ... + id + &quot;&#39;&quot;</text>
        </g>
        <!-- 14&#45;&gt;13 -->
        <g id="edge6" class="edge">
            <title>14&#45;&gt;13</title>
            <path fill="none" stroke="blue" d="M168.795,-305.813C168.795,-297.789 168.795,-288.047 168.795,-279.069"/>
            <polygon fill="blue" stroke="blue" points="172.295,-279.029 168.795,-269.029 165.295,-279.029 172.295,-279.029"/>
        </g>
        <!-- 15 -->
        <g id="node7" class="node">
            <title>15</title>
            <ellipse fill="none" stroke="black" cx="291.795" cy="-397" rx="126.978" ry="18"/>
            <text text-anchor="middle" x="291.795" y="-393.3" font-family="Times New Roman,serif" font-size="14.00">&quot;SELECT * FROM ... = &#39;&quot; + id</text>
        </g>
        <!-- 15&#45;&gt;14 -->
        <g id="edge7" class="edge">
            <title>15&#45;&gt;14</title>
            <path fill="none" stroke="blue" d="M262.957,-379.354C246.268,-369.72 225.059,-357.478 206.996,-347.051"/>
            <polygon fill="blue" stroke="blue" points="208.289,-343.756 197.878,-341.788 204.789,-349.819 208.289,-343.756"/>
        </g>
        <!-- 16 -->
        <g id="node8" class="node">
            <title>16</title>
            <ellipse fill="none" stroke="black" cx="246.795" cy="-470" rx="109.681" ry="18"/>
            <text text-anchor="middle" x="246.795" y="-466.3" font-family="Times New Roman,serif" font-size="14.00">&quot;SELECT * FROM ... = &#39;&quot;</text>
        </g>
        <!-- 16&#45;&gt;15 -->
        <g id="edge8" class="edge">
            <title>16&#45;&gt;15</title>
            <path fill="none" stroke="blue" d="M257.688,-451.813C263.05,-443.353 269.622,-432.984 275.561,-423.612"/>
            <polygon fill="blue" stroke="blue" points="278.605,-425.349 281.002,-415.029 272.692,-421.602 278.605,-425.349"/>
        </g>
        <!-- 18&#45;&gt;15 -->
        <g id="edge9" class="edge">
            <title>18&#45;&gt;15</title>
            <path fill="none" stroke="blue" d="M383.135,-456.956C367.578,-446.914 344.999,-432.341 326.183,-420.196"/>
            <polygon fill="blue" stroke="blue" points="327.87,-417.119 317.57,-414.637 324.073,-423 327.87,-417.119"/>
        </g>
        <!-- 20 -->
        <g id="node10" class="node">
            <title>20</title>
            <ellipse fill="none" stroke="black" cx="119.795" cy="-397" rx="27" ry="18"/>
            <text text-anchor="middle" x="119.795" y="-393.3" font-family="Times New Roman,serif" font-size="14.00">&quot;&#39;&quot;</text>
        </g>
        <!-- 20&#45;&gt;14 -->
        <g id="edge10" class="edge">
            <title>20&#45;&gt;14</title>
            <path fill="none" stroke="blue" d="M130.669,-380.243C136.732,-371.459 144.426,-360.31 151.313,-350.331"/>
            <polygon fill="blue" stroke="blue" points="154.295,-352.171 157.095,-341.953 148.534,-348.195 154.295,-352.171"/>
        </g>
        <!-- 23 -->
        <g id="node11" class="node">
            <title>23</title>
            <ellipse fill="none" stroke="black" cx="92.7947" cy="-18" rx="30.5947" ry="18"/>
            <text text-anchor="middle" x="92.7947" y="-14.3" font-family="Times New Roman,serif" font-size="14.00">result</text>
        </g>
        <!-- 24 -->
        <g id="node12" class="node">
            <title>24</title>
            <ellipse fill="none" stroke="black" cx="92.7947" cy="-91" rx="86.3847" ry="18"/>
            <text text-anchor="middle" x="92.7947" y="-87.3" font-family="Times New Roman,serif" font-size="14.00">mysqli_query(query)</text>
        </g>
        <!-- 24&#45;&gt;23 -->
        <g id="edge11" class="edge">
            <title>24&#45;&gt;23</title>
            <path fill="none" stroke="blue" d="M92.7947,-72.8129C92.7947,-64.7895 92.7947,-55.0475 92.7947,-46.0691"/>
            <polygon fill="blue" stroke="blue" points="96.2948,-46.0288 92.7947,-36.0288 89.2948,-46.0289 96.2948,-46.0288"/>
        </g>
        <!-- 25 -->
        <g id="node13" class="node">
            <title>25</title>
            <ellipse fill="none" stroke="black" cx="59.7947" cy="-164" rx="59.5901" ry="18"/>
            <text text-anchor="middle" x="59.7947" y="-160.3" font-family="Times New Roman,serif" font-size="14.00">mysqli_query</text>
        </g>
        <!-- 25&#45;&gt;24 -->
        <g id="edge12" class="edge">
            <title>25&#45;&gt;24</title>
            <path fill="none" stroke="blue" d="M67.7831,-145.813C71.6339,-137.528 76.3364,-127.41 80.6203,-118.193"/>
            <polygon fill="blue" stroke="blue" points="83.8389,-119.572 84.8799,-109.029 77.491,-116.622 83.8389,-119.572"/>
        </g>
        <!-- 27&#45;&gt;24 -->
        <g id="edge13" class="edge">
            <title>27&#45;&gt;24</title>
            <path fill="none" stroke="blue" d="M153.047,-148.289C143.015,-138.916 129.787,-126.559 118.282,-115.81"/>
            <polygon fill="blue" stroke="blue" points="120.349,-112.952 110.652,-108.683 115.57,-118.067 120.349,-112.952"/>
        </g>
    </g>
</svg>
