<?xml version="1.0" encoding="UTF-8" standalone="no"?>
<!DOCTYPE svg PUBLIC "-//W3C//DTD SVG 1.1//EN"
 "http://www.w3.org/Graphics/SVG/1.1/DTD/svg11.dtd">
<!-- Generated by graphviz version 2.38.0 (20140413.2041)
 -->
<!-- Title: cfg Pages: 1 -->
<svg width="858pt" height="132pt"
 viewBox="0.00 0.00 858.16 132.00" xmlns="http://www.w3.org/2000/svg" xmlns:xlink="http://www.w3.org/1999/xlink">
	<g id="graph0" class="graph" transform="scale(1 1) rotate(0) translate(4 128)">
		<title>cfg</title>
		<polygon fill="white" stroke="none" points="-4,4 -4,-128 854.165,-128 854.165,4 -4,4"/>
		<!-- 6 -->
		<g id="node1" class="node">
			<title>6</title>
			<ellipse fill="moccasin" stroke="black" cx="280.384" cy="-45" rx="27" ry="18"/>
			<text text-anchor="middle" x="280.384" y="-41.3" font-family="Times New Roman,serif" font-size="14.00">x0</text>
		</g>
		<!-- 17 -->
		<g id="node7" class="node">
			<title>17</title>
			<ellipse fill="none" stroke="black" cx="388.384" cy="-76" rx="27" ry="18"/>
			<text text-anchor="middle" x="388.384" y="-72.3" font-family="Times New Roman,serif" font-size="14.00">x0</text>
		</g>
		<!-- 6&#45;&gt;17 -->
		<g id="edge1" class="edge">
			<title>6&#45;&gt;17</title>
			<path fill="none" stroke="blue" stroke-dasharray="5,2" d="M305.437,-52.0344C319.668,-56.1961 337.914,-61.5324 353.576,-66.1127"/>
			<polygon fill="blue" stroke="blue" points="352.846,-69.5457 363.426,-68.9935 354.811,-62.8271 352.846,-69.5457"/>
			<text text-anchor="middle" x="334.384" y="-66.8" font-family="Times New Roman,serif" font-size="14.00">0,0</text>
		</g>
		<!-- 19 -->
		<g id="node8" class="node">
			<title>19</title>
			<ellipse fill="moccasin" stroke="black" cx="388.384" cy="-22" rx="27" ry="18"/>
			<text text-anchor="middle" x="388.384" y="-18.3" font-family="Times New Roman,serif" font-size="14.00">x0</text>
		</g>
		<!-- 6&#45;&gt;19 -->
		<g id="edge2" class="edge">
			<title>6&#45;&gt;19</title>
			<path fill="none" stroke="blue" stroke-dasharray="5,2" d="M306.035,-39.3208C312.339,-37.8897 319.108,-36.371 325.384,-35 334.111,-33.0936 343.541,-31.0883 352.349,-29.2388"/>
			<polygon fill="blue" stroke="blue" points="353.252,-32.6258 362.325,-27.1545 351.821,-25.7738 353.252,-32.6258"/>
			<text text-anchor="middle" x="334.384" y="-38.8" font-family="Times New Roman,serif" font-size="14.00">0,1</text>
		</g>
		<!-- 7 -->
		<g id="node2" class="node">
			<title>7</title>
			<ellipse fill="moccasin" stroke="black" cx="160.489" cy="-45" rx="55.7903" ry="18"/>
			<text text-anchor="middle" x="160.489" y="-41.3" font-family="Times New Roman,serif" font-size="14.00">_GET[&quot;x0&quot;]</text>
		</g>
		<!-- 7&#45;&gt;6 -->
		<g id="edge3" class="edge">
			<title>7&#45;&gt;6</title>
			<path fill="none" stroke="blue" d="M216.64,-45C225.573,-45 234.623,-45 242.964,-45"/>
			<polygon fill="blue" stroke="blue" points="243.089,-48.5001 253.089,-45 243.089,-41.5001 243.089,-48.5001"/>
		</g>
		<!-- 8 -->
		<g id="node3" class="node">
			<title>8</title>
			<ellipse fill="none" stroke="black" cx="33.797" cy="-72" rx="33.5952" ry="18"/>
			<text text-anchor="middle" x="33.797" y="-68.3" font-family="Times New Roman,serif" font-size="14.00">_GET</text>
		</g>
		<!-- 8&#45;&gt;7 -->
		<g id="edge4" class="edge">
			<title>8&#45;&gt;7</title>
			<path fill="none" stroke="blue" d="M65.3001,-65.3951C76.9059,-62.882 90.524,-59.9332 103.742,-57.0711"/>
			<polygon fill="blue" stroke="blue" points="104.699,-60.4451 113.732,-54.908 103.218,-53.6036 104.699,-60.4451"/>
		</g>
		<!-- 10 -->
		<g id="node4" class="node">
			<title>10</title>
			<ellipse fill="none" stroke="black" cx="33.797" cy="-18" rx="27.0966" ry="18"/>
			<text text-anchor="middle" x="33.797" y="-14.3" font-family="Times New Roman,serif" font-size="14.00">&quot;x0&quot;</text>
		</g>
		<!-- 10&#45;&gt;7 -->
		<g id="edge5" class="edge">
			<title>10&#45;&gt;7</title>
			<path fill="none" stroke="blue" d="M60.0303,-23.4639C72.6395,-26.1942 88.4329,-29.614 103.697,-32.9191"/>
			<polygon fill="blue" stroke="blue" points="103.097,-36.3704 113.612,-35.066 104.579,-29.5289 103.097,-36.3704"/>
		</g>
		<!-- 15 -->
		<g id="node5" class="node">
			<title>15</title>
			<ellipse fill="moccasin" stroke="black" cx="593.077" cy="-52" rx="27" ry="18"/>
			<text text-anchor="middle" x="593.077" y="-48.3" font-family="Times New Roman,serif" font-size="14.00">x1</text>
		</g>
		<!-- 24 -->
		<g id="node11" class="node">
			<title>24</title>
			<ellipse fill="moccasin" stroke="black" cx="701.375" cy="-52" rx="27" ry="18"/>
			<text text-anchor="middle" x="701.375" y="-48.3" font-family="Times New Roman,serif" font-size="14.00">x1</text>
		</g>
		<!-- 15&#45;&gt;24 -->
		<g id="edge6" class="edge">
			<title>15&#45;&gt;24</title>
			<path fill="none" stroke="blue" stroke-dasharray="5,2" d="M620.081,-52C633.336,-52 649.67,-52 664.137,-52"/>
			<polygon fill="blue" stroke="blue" points="664.272,-55.5001 674.272,-52 664.272,-48.5001 664.272,-55.5001"/>
			<text text-anchor="middle" x="647.077" y="-55.8" font-family="Times New Roman,serif" font-size="14.00">0,0</text>
		</g>
		<!-- 16 -->
		<g id="node6" class="node">
			<title>16</title>
			<ellipse fill="moccasin" stroke="black" cx="490.731" cy="-52" rx="38.1938" ry="18"/>
			<text text-anchor="middle" x="490.731" y="-48.3" font-family="Times New Roman,serif" font-size="14.00">x0 + x0</text>
		</g>
		<!-- 16&#45;&gt;15 -->
		<g id="edge7" class="edge">
			<title>16&#45;&gt;15</title>
			<path fill="none" stroke="blue" d="M529.096,-52C537.811,-52 547.079,-52 555.749,-52"/>
			<polygon fill="blue" stroke="blue" points="555.95,-55.5001 565.95,-52 555.95,-48.5001 555.95,-55.5001"/>
		</g>
		<!-- 17&#45;&gt;16 -->
		<g id="edge8" class="edge">
			<title>17&#45;&gt;16</title>
			<path fill="none" stroke="blue" d="M413.932,-70.1289C423.705,-67.7915 435.251,-65.0299 446.346,-62.3763"/>
			<polygon fill="blue" stroke="blue" points="447.433,-65.7151 456.345,-59.9849 445.805,-58.9071 447.433,-65.7151"/>
		</g>
		<!-- 19&#45;&gt;16 -->
		<g id="edge9" class="edge">
			<title>19&#45;&gt;16</title>
			<path fill="none" stroke="blue" d="M413.42,-29.1857C423.838,-32.3005 436.343,-36.039 448.186,-39.5798"/>
			<polygon fill="blue" stroke="blue" points="447.335,-42.9784 457.919,-42.4895 449.341,-36.2717 447.335,-42.9784"/>
		</g>
		<!-- 21 -->
		<g id="node9" class="node">
			<title>21</title>
			<ellipse fill="moccasin" stroke="black" cx="807.919" cy="-86" rx="42.4939" ry="18"/>
			<text text-anchor="middle" x="807.919" y="-82.3" font-family="Times New Roman,serif" font-size="14.00">print(x1)</text>
		</g>
		<!-- 22 -->
		<g id="node10" class="node">
			<title>22</title>
			<ellipse fill="none" stroke="black" cx="701.375" cy="-106" rx="27.0966" ry="18"/>
			<text text-anchor="middle" x="701.375" y="-102.3" font-family="Times New Roman,serif" font-size="14.00">print</text>
		</g>
		<!-- 22&#45;&gt;21 -->
		<g id="edge10" class="edge">
			<title>22&#45;&gt;21</title>
			<path fill="none" stroke="blue" d="M727.682,-101.159C737.213,-99.3352 748.391,-97.1968 759.297,-95.1105"/>
			<polygon fill="blue" stroke="blue" points="760.016,-98.5363 769.181,-93.2196 758.701,-91.661 760.016,-98.5363"/>
		</g>
		<!-- 24&#45;&gt;21 -->
		<g id="edge11" class="edge">
			<title>24&#45;&gt;21</title>
			<path fill="none" stroke="blue" d="M725.837,-59.6303C737.062,-63.2811 750.866,-67.7703 763.881,-72.0031"/>
			<polygon fill="blue" stroke="blue" points="763.032,-75.4073 773.624,-75.1717 765.196,-68.7505 763.032,-75.4073"/>
		</g>
	</g>
</svg>
