<?xml version="1.0" encoding="UTF-8" standalone="no"?>
<!DOCTYPE svg PUBLIC "-//W3C//DTD SVG 1.1//EN"
 "http://www.w3.org/Graphics/SVG/1.1/DTD/svg11.dtd">
<!-- Generated by graphviz version 2.38.0 (20140413.2041)
 -->
<!-- Title: cfg Pages: 1 -->
<svg width="478pt" height="601pt"
 viewBox="0.00 0.00 478.13 601.00" xmlns="http://www.w3.org/2000/svg" xmlns:xlink="http://www.w3.org/1999/xlink">
	<g id="graph0" class="graph" transform="scale(1 1) rotate(0) translate(4 597)">
		<title>cfg</title>
		<polygon fill="white" stroke="none" points="-4,4 -4,-597 474.131,-597 474.131,4 -4,4"/>
		<!-- 27 -->
		<g id="node1" class="node">
			<title>27</title>
			<ellipse fill="none" stroke="black" cx="310.039" cy="-575" rx="75.2868" ry="18"/>
			<text text-anchor="middle" x="310.039" y="-571.3" font-family="Times New Roman,serif" font-size="14.00">name == &quot;admin&quot;</text>
		</g>
		<!-- 33 -->
		<g id="node2" class="node">
			<title>33</title>
			<ellipse fill="none" stroke="black" cx="229.039" cy="-488" rx="81.4863" ry="18"/>
			<text text-anchor="middle" x="229.039" y="-484.3" font-family="Times New Roman,serif" font-size="14.00">key1 == &quot;validkey&quot;</text>
		</g>
		<!-- 27&#45;&gt;33 -->
		<g id="edge1" class="edge">
			<title>27&#45;&gt;33</title>
			<path fill="none" stroke="red" d="M294.036,-557.207C282.054,-544.633 265.491,-527.252 252.083,-513.182"/>
			<polygon fill="red" stroke="red" points="254.441,-510.583 245.008,-505.758 249.373,-515.412 254.441,-510.583"/>
			<text text-anchor="middle" x="286.039" y="-527.8" font-family="Times New Roman,serif" font-size="14.00">true</text>
		</g>
		<!-- 58 -->
		<g id="node9" class="node">
			<title>58</title>
			<ellipse fill="none" stroke="black" cx="371.039" cy="-434" rx="63.0888" ry="18"/>
			<text text-anchor="middle" x="371.039" y="-430.3" font-family="Times New Roman,serif" font-size="14.00">&quot;Wrong role!&quot;</text>
		</g>
		<!-- 27&#45;&gt;58 -->
		<g id="edge2" class="edge">
			<title>27&#45;&gt;58</title>
			<path fill="none" stroke="red" d="M317.518,-556.956C327.991,-533.092 347.121,-489.5 359.447,-461.414"/>
			<polygon fill="red" stroke="red" points="362.684,-462.747 363.498,-452.184 356.274,-459.934 362.684,-462.747"/>
			<text text-anchor="middle" x="345.039" y="-527.8" font-family="Times New Roman,serif" font-size="14.00">false</text>
		</g>
		<!-- 48 -->
		<g id="node5" class="node">
			<title>48</title>
			<ellipse fill="none" stroke="black" cx="146.039" cy="-380" rx="27" ry="18"/>
			<text text-anchor="middle" x="146.039" y="-376.3" font-family="Times New Roman,serif" font-size="14.00">data</text>
		</g>
		<!-- 33&#45;&gt;48 -->
		<g id="edge3" class="edge">
			<title>33&#45;&gt;48</title>
			<path fill="none" stroke="red" d="M205.13,-470.764C198.138,-465.316 190.828,-458.865 185.039,-452 173.621,-438.46 163.999,-421.059 157.169,-406.873"/>
			<polygon fill="red" stroke="red" points="160.277,-405.256 152.898,-397.652 153.925,-408.197 160.277,-405.256"/>
			<text text-anchor="middle" x="196.039" y="-430.3" font-family="Times New Roman,serif" font-size="14.00">true</text>
		</g>
		<!-- 53 -->
		<g id="node7" class="node">
			<title>53</title>
			<ellipse fill="none" stroke="black" cx="229.039" cy="-326" rx="61.99" ry="18"/>
			<text text-anchor="middle" x="229.039" y="-322.3" font-family="Times New Roman,serif" font-size="14.00">&quot;Wrong key!&quot;</text>
		</g>
		<!-- 33&#45;&gt;53 -->
		<g id="edge4" class="edge">
			<title>33&#45;&gt;53</title>
			<path fill="none" stroke="red" d="M229.039,-469.877C229.039,-442.354 229.039,-388.008 229.039,-354.849"/>
			<polygon fill="red" stroke="red" points="232.539,-354.485 229.039,-344.485 225.539,-354.485 232.539,-354.485"/>
			<text text-anchor="middle" x="242.039" y="-430.3" font-family="Times New Roman,serif" font-size="14.00">false</text>
		</g>
		<!-- 39 -->
		<g id="node3" class="node">
			<title>39</title>
			<ellipse fill="none" stroke="black" cx="135.039" cy="-164" rx="118.079" ry="18"/>
			<text text-anchor="middle" x="135.039" y="-160.3" font-family="Times New Roman,serif" font-size="14.00">str1 = ... TF8.GetString(data)</text>
		</g>
		<!-- 65 -->
		<g id="node11" class="node">
			<title>65</title>
			<ellipse fill="none" stroke="black" cx="282.039" cy="-91" rx="27" ry="18"/>
			<text text-anchor="middle" x="282.039" y="-87.3" font-family="Times New Roman,serif" font-size="14.00">str1</text>
		</g>
		<!-- 39&#45;&gt;65 -->
		<g id="edge5" class="edge">
			<title>39&#45;&gt;65</title>
			<path fill="none" stroke="red" d="M168.763,-146.711C193.757,-134.639 227.532,-118.326 251.684,-106.661"/>
			<polygon fill="red" stroke="red" points="253.268,-109.783 260.751,-102.282 250.224,-103.48 253.268,-109.783"/>
		</g>
		<!-- 41 -->
		<g id="node4" class="node">
			<title>41</title>
			<ellipse fill="none" stroke="black" cx="128.039" cy="-272" rx="128.077" ry="18"/>
			<text text-anchor="middle" x="128.039" y="-268.3" font-family="Times New Roman,serif" font-size="14.00">Encoding.UTF8.GetString(data)</text>
		</g>
		<!-- 41&#45;&gt;39 -->
		<g id="edge6" class="edge">
			<title>41&#45;&gt;39</title>
			<path fill="none" stroke="red" d="M129.163,-253.969C130.259,-237.378 131.943,-211.883 133.227,-192.431"/>
			<polygon fill="red" stroke="red" points="136.727,-192.55 133.894,-182.341 129.742,-192.088 136.727,-192.55"/>
		</g>
		<!-- 48&#45;&gt;41 -->
		<g id="edge7" class="edge">
			<title>48&#45;&gt;41</title>
			<path fill="none" stroke="red" d="M143.147,-361.969C140.329,-345.378 136,-319.883 132.697,-300.431"/>
			<polygon fill="red" stroke="red" points="136.108,-299.613 130.983,-290.341 129.207,-300.785 136.108,-299.613"/>
		</g>
		<!-- 51 -->
		<g id="node6" class="node">
			<title>51</title>
			<ellipse fill="none" stroke="black" cx="282.039" cy="-218" rx="85.5853" ry="18"/>
			<text text-anchor="middle" x="282.039" y="-214.3" font-family="Times New Roman,serif" font-size="14.00">str1 = &quot;Wrong key!&quot;</text>
		</g>
		<!-- 51&#45;&gt;65 -->
		<g id="edge8" class="edge">
			<title>51&#45;&gt;65</title>
			<path fill="none" stroke="red" d="M282.039,-199.881C282.039,-179.146 282.039,-143.953 282.039,-119.422"/>
			<polygon fill="red" stroke="red" points="285.539,-119.313 282.039,-109.313 278.539,-119.313 285.539,-119.313"/>
		</g>
		<!-- 53&#45;&gt;51 -->
		<g id="edge9" class="edge">
			<title>53&#45;&gt;51</title>
			<path fill="none" stroke="red" d="M249.55,-308.894C255.308,-303.451 261.073,-296.97 265.039,-290 272.68,-276.568 276.899,-259.826 279.222,-245.973"/>
			<polygon fill="red" stroke="red" points="282.69,-246.443 280.654,-236.046 275.762,-245.444 282.69,-246.443"/>
		</g>
		<!-- 56 -->
		<g id="node8" class="node">
			<title>56</title>
			<ellipse fill="none" stroke="black" cx="383.039" cy="-326" rx="87.1846" ry="18"/>
			<text text-anchor="middle" x="383.039" y="-322.3" font-family="Times New Roman,serif" font-size="14.00">str1 = &quot;Wrong role!&quot;</text>
		</g>
		<!-- 56&#45;&gt;65 -->
		<g id="edge10" class="edge">
			<title>56&#45;&gt;65</title>
			<path fill="none" stroke="red" d="M384.082,-307.67C384.928,-282.818 384.074,-236.081 369.039,-200 354.668,-165.513 325.753,-133.153 305.206,-113.013"/>
			<polygon fill="red" stroke="red" points="307.433,-110.3 297.789,-105.913 302.593,-115.357 307.433,-110.3"/>
		</g>
		<!-- 58&#45;&gt;56 -->
		<g id="edge11" class="edge">
			<title>58&#45;&gt;56</title>
			<path fill="none" stroke="red" d="M372.967,-415.969C374.845,-399.378 377.731,-373.883 379.933,-354.431"/>
			<polygon fill="red" stroke="red" points="383.428,-354.671 381.076,-344.341 376.473,-353.883 383.428,-354.671"/>
		</g>
		<!-- 60 -->
		<g id="node10" class="node">
			<title>60</title>
			<ellipse fill="none" stroke="black" cx="282.039" cy="-18" rx="89.0842" ry="18"/>
			<text text-anchor="middle" x="282.039" y="-14.3" font-family="Times New Roman,serif" font-size="14.00">Response.Write(str1)</text>
		</g>
		<!-- 65&#45;&gt;60 -->
		<g id="edge12" class="edge">
			<title>65&#45;&gt;60</title>
			<path fill="none" stroke="red" d="M282.039,-72.8129C282.039,-64.7895 282.039,-55.0475 282.039,-46.0691"/>
			<polygon fill="red" stroke="red" points="285.539,-46.0288 282.039,-36.0288 278.539,-46.0289 285.539,-46.0288"/>
		</g>
	</g>
</svg>
