<?xml version="1.0" encoding="UTF-8" standalone="no"?>
<!DOCTYPE svg PUBLIC "-//W3C//DTD SVG 1.1//EN"
 "http://www.w3.org/Graphics/SVG/1.1/DTD/svg11.dtd">
<!-- Generated by graphviz version 2.38.0 (20140413.2041)
 -->
<!-- Title: cfg Pages: 1 -->
<svg width="244pt" height="77pt"
 viewBox="0.00 0.00 244.00 77.00" xmlns="http://www.w3.org/2000/svg" xmlns:xlink="http://www.w3.org/1999/xlink">
	<g id="graph0" class="graph" transform="scale(1 1) rotate(0) translate(4 73)">
		<title>cfg</title>
		<polygon fill="white" stroke="none" points="-4,4 -4,-73 240,-73 240,4 -4,4"/>
		<!-- 0 -->
		<g id="node1" class="node">
			<title>0</title>
			<ellipse fill="none" stroke="black" cx="27" cy="-18" rx="27" ry="18"/>
			<text text-anchor="middle" x="27" y="-14.3" font-family="Times New Roman,serif" font-size="14.00">16</text>
		</g>
		<!-- 1 -->
		<g id="node2" class="node">
			<title>1</title>
			<ellipse fill="none" stroke="black" cx="118" cy="-18" rx="27" ry="18"/>
			<text text-anchor="middle" x="118" y="-14.3" font-family="Times New Roman,serif" font-size="14.00">b</text>
		</g>
		<!-- 0&#45;&gt;1 -->
		<g id="edge1" class="edge">
			<title>0&#45;&gt;1</title>
			<path fill="none" stroke="blue" d="M54.2216,-18C62.5505,-18 71.9135,-18 80.8161,-18"/>
			<polygon fill="blue" stroke="blue" points="80.9659,-21.5001 90.9659,-18 80.9658,-14.5001 80.9659,-21.5001"/>
		</g>
		<!-- 1&#45;&gt;1 -->
		<g id="edge2" class="edge">
			<title>1&#45;&gt;1</title>
			<path fill="none" stroke="blue" stroke-dasharray="5,2" d="M110.145,-35.4099C108.678,-45.0879 111.297,-54 118,-54 122.189,-54 124.783,-50.5187 125.782,-45.5449"/>
			<polygon fill="blue" stroke="blue" points="129.282,-45.4351 125.855,-35.4099 122.283,-45.3842 129.282,-45.4351"/>
			<text text-anchor="middle" x="118" y="-57.8" font-family="Times New Roman,serif" font-size="14.00">0,0</text>
		</g>
		<!-- 2 -->
		<g id="node3" class="node">
			<title>2</title>
			<ellipse fill="none" stroke="black" cx="209" cy="-18" rx="27" ry="18"/>
			<text text-anchor="middle" x="209" y="-14.3" font-family="Times New Roman,serif" font-size="14.00">a</text>
		</g>
		<!-- 1&#45;&gt;2 -->
		<g id="edge3" class="edge">
			<title>1&#45;&gt;2</title>
			<path fill="none" stroke="blue" d="M145.222,-18C153.551,-18 162.914,-18 171.816,-18"/>
			<polygon fill="blue" stroke="blue" points="171.966,-21.5001 181.966,-18 171.966,-14.5001 171.966,-21.5001"/>
		</g>
	</g>
</svg>
