<?xml version="1.0" encoding="UTF-8" standalone="no"?>
<!DOCTYPE svg PUBLIC "-//W3C//DTD SVG 1.1//EN"
 "http://www.w3.org/Graphics/SVG/1.1/DTD/svg11.dtd">
<!-- Generated by graphviz version 2.38.0 (20140413.2041)
 -->
<!-- Title: cfg Pages: 1 -->
<svg width="261pt" height="62pt"
 viewBox="0.00 0.00 261.00 62.00" xmlns="http://www.w3.org/2000/svg" xmlns:xlink="http://www.w3.org/1999/xlink">
	<g id="graph0" class="graph" transform="scale(1 1) rotate(0) translate(4 58)">
		<title>cfg</title>
		<polygon fill="white" stroke="none" points="-4,4 -4,-58 257,-58 257,4 -4,4"/>
		<!-- 0 -->
		<g id="node1" class="node">
			<title>0</title>
			<ellipse fill="none" stroke="black" cx="27" cy="-18" rx="27" ry="18"/>
			<text text-anchor="middle" x="27" y="-14.3" font-family="Times New Roman,serif" font-size="14.00">b</text>
		</g>
		<!-- 0&#45;&gt;0 -->
		<g id="edge1" class="edge">
			<title>0&#45;&gt;0</title>
			<path fill="none" stroke="blue" d="M17.4312,-35.0373C15.4784,-44.8579 18.668,-54 27,-54 32.2075,-54 35.4063,-50.4289 36.5963,-45.3529"/>
			<polygon fill="blue" stroke="blue" points="40.0955,-45.0279 36.5688,-35.0373 33.0955,-45.0466 40.0955,-45.0279"/>
		</g>
		<!-- 1 -->
		<g id="node2" class="node">
			<title>1</title>
			<ellipse fill="none" stroke="black" cx="135" cy="-18" rx="27" ry="18"/>
			<text text-anchor="middle" x="135" y="-14.3" font-family="Times New Roman,serif" font-size="14.00">b</text>
		</g>
		<!-- 0&#45;&gt;1 -->
		<g id="edge2" class="edge">
			<title>0&#45;&gt;1</title>
			<path fill="none" stroke="blue" stroke-dasharray="5,2" d="M54.2023,-18C67.325,-18 83.4222,-18 97.7132,-18"/>
			<polygon fill="blue" stroke="blue" points="97.7318,-21.5001 107.732,-18 97.7318,-14.5001 97.7318,-21.5001"/>
			<text text-anchor="middle" x="81" y="-21.8" font-family="Times New Roman,serif" font-size="14.00">0,0</text>
		</g>
		<!-- 2 -->
		<g id="node3" class="node">
			<title>2</title>
			<ellipse fill="none" stroke="black" cx="226" cy="-18" rx="27" ry="18"/>
			<text text-anchor="middle" x="226" y="-14.3" font-family="Times New Roman,serif" font-size="14.00">a</text>
		</g>
		<!-- 1&#45;&gt;2 -->
		<g id="edge3" class="edge">
			<title>1&#45;&gt;2</title>
			<path fill="none" stroke="blue" d="M162.222,-18C170.551,-18 179.914,-18 188.816,-18"/>
			<polygon fill="blue" stroke="blue" points="188.966,-21.5001 198.966,-18 188.966,-14.5001 188.966,-21.5001"/>
		</g>
	</g>
</svg>
