<?xml version="1.0" encoding="UTF-8" standalone="no"?>
<!DOCTYPE svg PUBLIC "-//W3C//DTD SVG 1.1//EN"
 "http://www.w3.org/Graphics/SVG/1.1/DTD/svg11.dtd">
<!-- Generated by graphviz version 2.38.0 (20140413.2041)
 -->
<!-- Title: cfg Pages: 1 -->
<svg width="760pt" height="179pt"
 viewBox="0.00 0.00 760.19 179.00" xmlns="http://www.w3.org/2000/svg" xmlns:xlink="http://www.w3.org/1999/xlink">
	<g id="graph0" class="graph" transform="scale(1 1) rotate(0) translate(4 175)">
		<title>cfg</title>
		<polygon fill="white" stroke="none" points="-4,4 -4,-175 756.188,-175 756.188,4 -4,4"/>
		<!-- 8 -->
		<g id="node1" class="node">
			<title>8</title>
			<ellipse fill="none" stroke="black" cx="118" cy="-18" rx="27" ry="18"/>
			<text text-anchor="middle" x="118" y="-14.3" font-family="Times New Roman,serif" font-size="14.00">a</text>
		</g>
		<!-- 18 -->
		<g id="node7" class="node">
			<title>18</title>
			<ellipse fill="none" stroke="black" cx="226" cy="-47" rx="27" ry="18"/>
			<text text-anchor="middle" x="226" y="-43.3" font-family="Times New Roman,serif" font-size="14.00">a</text>
		</g>
		<!-- 8&#45;&gt;18 -->
		<g id="edge1" class="edge">
			<title>8&#45;&gt;18</title>
			<path fill="none" stroke="blue" stroke-dasharray="5,2" d="M143.319,-24.6532C157.458,-28.5215 175.495,-33.4561 191.021,-37.7038"/>
			<polygon fill="blue" stroke="blue" points="190.225,-41.1148 200.795,-40.3778 192.073,-34.3629 190.225,-41.1148"/>
			<text text-anchor="middle" x="172" y="-38.8" font-family="Times New Roman,serif" font-size="14.00">1,0</text>
		</g>
		<!-- 9 -->
		<g id="node2" class="node">
			<title>9</title>
			<ellipse fill="none" stroke="black" cx="27" cy="-18" rx="27" ry="18"/>
			<text text-anchor="middle" x="27" y="-14.3" font-family="Times New Roman,serif" font-size="14.00">1</text>
		</g>
		<!-- 9&#45;&gt;8 -->
		<g id="edge2" class="edge">
			<title>9&#45;&gt;8</title>
			<path fill="none" stroke="blue" d="M54.2216,-18C62.5505,-18 71.9135,-18 80.8161,-18"/>
			<polygon fill="blue" stroke="blue" points="80.9659,-21.5001 90.9659,-18 80.9658,-14.5001 80.9659,-21.5001"/>
		</g>
		<!-- 12 -->
		<g id="node3" class="node">
			<title>12</title>
			<ellipse fill="none" stroke="black" cx="118" cy="-72" rx="27" ry="18"/>
			<text text-anchor="middle" x="118" y="-68.3" font-family="Times New Roman,serif" font-size="14.00">a</text>
		</g>
		<!-- 12&#45;&gt;18 -->
		<g id="edge3" class="edge">
			<title>12&#45;&gt;18</title>
			<path fill="none" stroke="blue" stroke-dasharray="5,2" d="M143.585,-66.2017C157.399,-62.9436 174.87,-58.8231 190.083,-55.2352"/>
			<polygon fill="blue" stroke="blue" points="191.252,-58.5556 200.181,-52.8535 189.645,-51.7425 191.252,-58.5556"/>
			<text text-anchor="middle" x="172" y="-64.8" font-family="Times New Roman,serif" font-size="14.00">0,0</text>
		</g>
		<!-- 13 -->
		<g id="node4" class="node">
			<title>13</title>
			<ellipse fill="none" stroke="black" cx="27" cy="-72" rx="27" ry="18"/>
			<text text-anchor="middle" x="27" y="-68.3" font-family="Times New Roman,serif" font-size="14.00">2</text>
		</g>
		<!-- 13&#45;&gt;12 -->
		<g id="edge4" class="edge">
			<title>13&#45;&gt;12</title>
			<path fill="none" stroke="blue" d="M54.2216,-72C62.5505,-72 71.9135,-72 80.8161,-72"/>
			<polygon fill="blue" stroke="blue" points="80.9659,-75.5001 90.9659,-72 80.9658,-68.5001 80.9659,-75.5001"/>
		</g>
		<!-- 16 -->
		<g id="node5" class="node">
			<title>16</title>
			<ellipse fill="none" stroke="black" cx="421.594" cy="-81" rx="27" ry="18"/>
			<text text-anchor="middle" x="421.594" y="-77.3" font-family="Times New Roman,serif" font-size="14.00">b</text>
		</g>
		<!-- 24 -->
		<g id="node10" class="node">
			<title>24</title>
			<ellipse fill="none" stroke="black" cx="529.594" cy="-45" rx="27" ry="18"/>
			<text text-anchor="middle" x="529.594" y="-41.3" font-family="Times New Roman,serif" font-size="14.00">b</text>
		</g>
		<!-- 16&#45;&gt;24 -->
		<g id="edge5" class="edge">
			<title>16&#45;&gt;24</title>
			<path fill="none" stroke="blue" stroke-dasharray="5,2" d="M445.856,-73.0996C460.391,-68.1633 479.338,-61.7285 495.432,-56.2625"/>
			<polygon fill="blue" stroke="blue" points="496.677,-59.5363 505.02,-53.0063 494.425,-52.9081 496.677,-59.5363"/>
			<text text-anchor="middle" x="475.594" y="-69.8" font-family="Times New Roman,serif" font-size="14.00">0,0</text>
		</g>
		<!-- 29 -->
		<g id="node13" class="node">
			<title>29</title>
			<ellipse fill="none" stroke="black" cx="529.594" cy="-153" rx="27" ry="18"/>
			<text text-anchor="middle" x="529.594" y="-149.3" font-family="Times New Roman,serif" font-size="14.00">b</text>
		</g>
		<!-- 16&#45;&gt;29 -->
		<g id="edge6" class="edge">
			<title>16&#45;&gt;29</title>
			<path fill="none" stroke="blue" stroke-dasharray="5,2" d="M441.058,-93.5414C457.751,-104.88 482.54,-121.718 501.482,-134.584"/>
			<polygon fill="blue" stroke="blue" points="499.747,-137.637 509.986,-140.361 503.681,-131.847 499.747,-137.637"/>
			<text text-anchor="middle" x="475.594" y="-126.8" font-family="Times New Roman,serif" font-size="14.00">0,1</text>
		</g>
		<!-- 17 -->
		<g id="node6" class="node">
			<title>17</title>
			<ellipse fill="none" stroke="black" cx="323.797" cy="-81" rx="33.5952" ry="18"/>
			<text text-anchor="middle" x="323.797" y="-77.3" font-family="Times New Roman,serif" font-size="14.00">a + 42</text>
		</g>
		<!-- 17&#45;&gt;16 -->
		<g id="edge7" class="edge">
			<title>17&#45;&gt;16</title>
			<path fill="none" stroke="blue" d="M357.765,-81C366.307,-81 375.553,-81 384.257,-81"/>
			<polygon fill="blue" stroke="blue" points="384.522,-84.5001 394.522,-81 384.522,-77.5001 384.522,-84.5001"/>
		</g>
		<!-- 18&#45;&gt;17 -->
		<g id="edge8" class="edge">
			<title>18&#45;&gt;17</title>
			<path fill="none" stroke="blue" d="M250.19,-55.2305C260.745,-58.9768 273.506,-63.5057 285.366,-67.715"/>
			<polygon fill="blue" stroke="blue" points="284.454,-71.1051 295.048,-71.1515 286.795,-64.5083 284.454,-71.1051"/>
		</g>
		<!-- 20 -->
		<g id="node8" class="node">
			<title>20</title>
			<ellipse fill="none" stroke="black" cx="226" cy="-101" rx="27" ry="18"/>
			<text text-anchor="middle" x="226" y="-97.3" font-family="Times New Roman,serif" font-size="14.00">42</text>
		</g>
		<!-- 20&#45;&gt;17 -->
		<g id="edge9" class="edge">
			<title>20&#45;&gt;17</title>
			<path fill="none" stroke="blue" d="M252.17,-95.7452C261.316,-93.8356 271.903,-91.6254 282.051,-89.5067"/>
			<polygon fill="blue" stroke="blue" points="282.91,-92.9029 291.984,-87.433 281.479,-86.0507 282.91,-92.9029"/>
		</g>
		<!-- 23 -->
		<g id="node9" class="node">
			<title>23</title>
			<ellipse fill="none" stroke="black" cx="627.391" cy="-45" rx="27" ry="18"/>
			<text text-anchor="middle" x="627.391" y="-41.3" font-family="Times New Roman,serif" font-size="14.00">c</text>
		</g>
		<!-- 24&#45;&gt;23 -->
		<g id="edge10" class="edge">
			<title>24&#45;&gt;23</title>
			<path fill="none" stroke="blue" d="M556.771,-45C567.014,-45 578.939,-45 589.995,-45"/>
			<polygon fill="blue" stroke="blue" points="590.246,-48.5001 600.246,-45 590.246,-41.5001 590.246,-48.5001"/>
		</g>
		<!-- 27 -->
		<g id="node11" class="node">
			<title>27</title>
			<ellipse fill="none" stroke="black" cx="725.188" cy="-118" rx="27" ry="18"/>
			<text text-anchor="middle" x="725.188" y="-114.3" font-family="Times New Roman,serif" font-size="14.00">c</text>
		</g>
		<!-- 28 -->
		<g id="node12" class="node">
			<title>28</title>
			<ellipse fill="none" stroke="black" cx="627.391" cy="-118" rx="33.5952" ry="18"/>
			<text text-anchor="middle" x="627.391" y="-114.3" font-family="Times New Roman,serif" font-size="14.00">b * 17</text>
		</g>
		<!-- 28&#45;&gt;27 -->
		<g id="edge11" class="edge">
			<title>28&#45;&gt;27</title>
			<path fill="none" stroke="blue" d="M661.359,-118C669.901,-118 679.147,-118 687.851,-118"/>
			<polygon fill="blue" stroke="blue" points="688.116,-121.5 698.116,-118 688.116,-114.5 688.116,-121.5"/>
		</g>
		<!-- 29&#45;&gt;28 -->
		<g id="edge12" class="edge">
			<title>29&#45;&gt;28</title>
			<path fill="none" stroke="blue" d="M553.784,-144.527C564.426,-140.639 577.309,-135.932 589.251,-131.569"/>
			<polygon fill="blue" stroke="blue" points="590.8,-134.73 598.992,-128.011 588.398,-128.155 590.8,-134.73"/>
		</g>
		<!-- 31 -->
		<g id="node14" class="node">
			<title>31</title>
			<ellipse fill="none" stroke="black" cx="529.594" cy="-99" rx="27" ry="18"/>
			<text text-anchor="middle" x="529.594" y="-95.3" font-family="Times New Roman,serif" font-size="14.00">17</text>
		</g>
		<!-- 31&#45;&gt;28 -->
		<g id="edge13" class="edge">
			<title>31&#45;&gt;28</title>
			<path fill="none" stroke="blue" d="M555.764,-103.992C564.91,-105.806 575.497,-107.906 585.645,-109.919"/>
			<polygon fill="blue" stroke="blue" points="585.088,-113.376 595.578,-111.889 586.45,-106.51 585.088,-113.376"/>
		</g>
	</g>
</svg>
